<svg class="flipping-card__flip-icon head-ratings__flipping-card-flip-icon head-ratings__flipping-card-flip-icon_type_default" width="20" height="24" viewBox="0 0 20 24" fill="none" xmlns="http://www.w3.org/2000/svg"><path d="M0.81981 22.777C0.543995 22.7905 0.331305 23.0249 0.344754 23.3008C0.358202 23.5766 0.592696 23.7893 0.868511 23.7758L0.81981 22.777ZM3.41356 5.02436C3.2749 5.26317 3.35608 5.56917 3.59488 5.70783L7.4864 7.9675C7.7252 8.10616 8.0312 8.02498 8.16986 7.78618C8.30853 7.54738 8.22735 7.24138 7.98854 7.10272L4.52942 5.09412L6.53801 1.635C6.67668 1.39619 6.5955 1.0902 6.35669 0.951532C6.11789 0.812867 5.8119 0.894045 5.67323 1.13285L3.41356 5.02436ZM0.868511 23.7758C11.2758 23.2684 18.3896 17.0413 19.7055 11.581C20.037 10.2058 20.0033 8.85952 19.5323 7.66766C19.0591 6.47011 18.1591 5.4669 16.8286 4.76365C14.1926 3.37023 9.8835 3.15644 3.71774 4.79216L3.97416 5.75872C10.0576 4.14485 14.0604 4.43145 16.3613 5.64773C17.4994 6.24933 18.2242 7.07831 18.6023 8.03519C18.9827 8.99776 19.0271 10.1281 18.7334 11.3468C17.5488 16.2619 10.9126 22.2849 0.81981 22.777L0.868511 23.7758Z" fill="white"></path></svg>